<svg xmlns="http://www.w3.org/2000/svg" xmlns:xlink="http://www.w3.org/1999/xlink" version="1.1" x="0px" y="0px" viewBox="0 0 100 125" enable-background="new 0 0 100 100" xml:space="preserve"><path d="M15.5,82.5c14.4-6.2,56.5-23.9,71-30c1.1-0.6,4.1-2.5,0-4c-14.5-6.3-56.5-24.8-71-31c-4.4-1.8-6,1.4-6,3c0,5.4,0,13,0,18  c0.1,3.1,2.9,4.9,4,5c12.5,1.7,54.6,7,54.6,7s-41.3,5.2-54.6,7c-3.5,0.7-4,3.4-4,4.9c0,5,0,12.6,0,18.1  C9.5,84.1,13.3,83.5,15.5,82.5z"/><text x="0" y="115" fill="#000000" font-size="5px" font-weight="bold" font-family="'Helvetica Neue', Helvetica, Arial-Unicode, Arial, Sans-serif">Created by Montu Yadav</text><text x="0" y="120" fill="#000000" font-size="5px" font-weight="bold" font-family="'Helvetica Neue', Helvetica, Arial-Unicode, Arial, Sans-serif">from the Noun Project</text></svg>